<?xml version="1.0" encoding="utf-8"?>
<svg version="1.1" xmlns:xlink="http://www.w3.org/1999/xlink" width="12px" height="12px" viewBox="701 519  12 12" xmlns="http://www.w3.org/2000/svg">
  <path d="M 707 519  C 710.36 519  713 521.64  713 525  C 713 528.36  710.36 531  707 531  C 703.64 531  701 528.36  701 525  C 701 521.64  703.64 519  707 519  Z " fill-rule="nonzero" fill="#ffffff" stroke="none" />
  <path d="M 707 519.5  C 710.08 519.5  712.5 521.92  712.5 525  C 712.5 528.08  710.08 530.5  707 530.5  C 703.92 530.5  701.5 528.08  701.5 525  C 701.5 521.92  703.92 519.5  707 519.5  Z " stroke-width="1" stroke="#797979" fill="none" />
  <path d="M 707 528  C 705.32 528  704 526.68  704 525  C 704 523.32  705.32 522  707 522  C 708.68 522  710 523.32  710 525  C 710 526.68  708.68 528  707 528  " fill-rule="nonzero" fill="#797979" stroke="none" />
</svg>