<?xml version="1.0" encoding="utf-8"?>
<svg version="1.1" xmlns:xlink="http://www.w3.org/1999/xlink" width="12px" height="12px" viewBox="782 519  12 12" xmlns="http://www.w3.org/2000/svg">
  <path d="M 788 519  C 791.36 519  794 521.64  794 525  C 794 528.36  791.36 531  788 531  C 784.64 531  782 528.36  782 525  C 782 521.64  784.64 519  788 519  Z " fill-rule="nonzero" fill="#ffffff" stroke="none" />
  <path d="M 788 519.5  C 791.08 519.5  793.5 521.92  793.5 525  C 793.5 528.08  791.08 530.5  788 530.5  C 784.92 530.5  782.5 528.08  782.5 525  C 782.5 521.92  784.92 519.5  788 519.5  Z " stroke-width="1" stroke="#797979" fill="none" />
  <path d="M 788 528  C 786.32 528  785 526.68  785 525  C 785 523.32  786.32 522  788 522  C 789.68 522  791 523.32  791 525  C 791 526.68  789.68 528  788 528  " fill-rule="nonzero" fill="#797979" stroke="none" />
</svg>