<?xml version="1.0" encoding="utf-8"?>
<svg version="1.1" xmlns:xlink="http://www.w3.org/1999/xlink" width="12px" height="12px" viewBox="1110 156  12 12" xmlns="http://www.w3.org/2000/svg">
  <path d="M 1116 156  C 1119.36 156  1122 158.64  1122 162  C 1122 165.36  1119.36 168  1116 168  C 1112.64 168  1110 165.36  1110 162  C 1110 158.64  1112.64 156  1116 156  Z " fill-rule="nonzero" fill="#ffffff" stroke="none" />
  <path d="M 1116 156.5  C 1119.08 156.5  1121.5 158.92  1121.5 162  C 1121.5 165.08  1119.08 167.5  1116 167.5  C 1112.92 167.5  1110.5 165.08  1110.5 162  C 1110.5 158.92  1112.92 156.5  1116 156.5  Z " stroke-width="1" stroke="#797979" fill="none" />
  <path d="M 1116 165  C 1114.32 165  1113 163.68  1113 162  C 1113 160.32  1114.32 159  1116 159  C 1117.68 159  1119 160.32  1119 162  C 1119 163.68  1117.68 165  1116 165  " fill-rule="nonzero" fill="#797979" stroke="none" />
</svg>