<?xml version="1.0" encoding="utf-8"?>
<svg version="1.1" xmlns:xlink="http://www.w3.org/1999/xlink" width="17px" height="14px" xmlns="http://www.w3.org/2000/svg">
  <g transform="matrix(1 0 0 1 -1269 -325 )">
    <path d="M 2.518125 11.498046875  C 2.65270833333333 11.3856336805556  2.72 11.2473958333333  2.72 11.0833333333333  C 2.72 10.9253472222222  2.65270833333333 10.7886284722222  2.518125 10.6731770833333  C 2.38354166666667 10.5577256944444  2.22416666666667 10.5  2.04 10.5  C 1.84875 10.5  1.68760416666667 10.5577256944444  1.5565625 10.6731770833333  C 1.42552083333333 10.7886284722222  1.36 10.9253472222222  1.36 11.0833333333333  C 1.36 11.2473958333333  1.42552083333333 11.3856336805556  1.5565625 11.498046875  C 1.68760416666667 11.6104600694444  1.84875 11.6666666666667  2.04 11.6666666666667  C 2.22416666666667 11.6666666666667  2.38354166666667 11.6104600694444  2.518125 11.498046875  Z M 4.218125 6.00651041666667  C 4.35270833333333 6.12196180555555  4.42 6.25868055555555  4.42 6.41666666666667  L 4.42 12.25  C 4.42 12.4079861111111  4.35270833333333 12.5447048611111  4.218125 12.66015625  C 4.08354166666667 12.7756076388889  3.92416666666667 12.8333333333333  3.74 12.8333333333333  L 0.68 12.8333333333333  C 0.495833333333333 12.8333333333333  0.336458333333333 12.7756076388889  0.201875 12.66015625  C 0.0672916666666667 12.5447048611111  0 12.4079861111111  0 12.25  L 0 6.41666666666667  C 0 6.25868055555555  0.0672916666666667 6.12196180555555  0.201875 6.00651041666667  C 0.336458333333333 5.89105902777778  0.495833333333333 5.83333333333333  0.68 5.83333333333333  L 3.74 5.83333333333333  C 3.92416666666667 5.83333333333333  4.08354166666667 5.89105902777778  4.218125 6.00651041666667  Z M 16.394375 5.18619791666667  C 16.798125 5.53255208333333  17 5.94270833333333  17 6.41666666666667  C 17 6.93923611111111  16.8052083333333 7.39192708333333  16.415625 7.77473958333333  C 16.521875 8.04210069444444  16.575 8.27300347222222  16.575 8.46744791666667  C 16.59625 8.92925347222222  16.4439583333333 9.34548611111111  16.118125 9.71614583333333  C 16.2385416666667 10.0564236111111  16.2385416666667 10.4118923611111  16.118125 10.7825520833333  C 16.011875 11.12890625  15.820625 11.4144965277778  15.544375 11.6393229166667  C 15.608125 12.3198784722222  15.4345833333333 12.8697916666667  15.02375 13.2890625  C 14.5704166666667 13.7508680555556  13.8727083333333 13.9878472222222  12.930625 14  L 12.548125 14  L 11.740625 14  L 11.56 14  C 11.0925 14  10.5825 13.9529079861111  10.03 13.8587239583333  C 9.4775 13.7645399305556  9.0471875 13.6764322916667  8.7390625 13.5944010416667  C 8.4309375 13.5123697916667  8.00416666666667 13.3923611111111  7.45875 13.234375  C 6.5875 12.9730902777778  6.02791666666667 12.8394097222222  5.78 12.8333333333333  C 5.59583333333333 12.8272569444444  5.43645833333333 12.7680121527778  5.301875 12.6555989583333  C 5.16729166666667 12.5431857638889  5.1 12.4079861111111  5.1 12.25  L 5.1 6.40755208333333  C 5.1 6.25564236111111  5.16375 6.12348090277778  5.29125 6.01106770833333  C 5.41875 5.89865451388889  5.57104166666667 5.83637152777778  5.748125 5.82421875  C 5.918125 5.81206597222222  6.18729166666667 5.6328125  6.555625 5.28645833333333  C 6.92395833333333 4.94010416666667  7.28166666666667 4.57248263888889  7.62875 4.18359375  C 8.11041666666667 3.65494791666667  8.468125 3.29036458333333  8.701875 3.08984375  C 8.829375 2.98046875  8.93916666666667 2.83463541666667  9.03125 2.65234375  C 9.12333333333333 2.47005208333333  9.1853125 2.32269965277778  9.2171875 2.21028645833333  C 9.2490625 2.09787326388889  9.296875 1.9140625  9.360625 1.65885416666667  C 9.41020833333333 1.421875  9.45447916666667 1.23654513888889  9.4934375 1.10286458333333  C 9.53239583333333 0.969184027777777  9.60145833333333 0.811197916666667  9.700625 0.62890625  C 9.79979166666667 0.446614583333333  9.92020833333333 0.294704861111111  10.061875 0.173177083333333  C 10.1964583333333 0.0577256944444438  10.3558333333333 0  10.54 0  C 10.8658333333333 0  11.1580208333333 0.0319010416666672  11.4165625 0.095703125  C 11.6751041666667 0.159505208333333  11.8876041666667 0.238498263888888  12.0540625 0.332682291666667  C 12.2205208333333 0.426866319444444  12.3621875 0.549913194444444  12.4790625 0.701822916666667  C 12.5959375 0.853732638888888  12.6809375 0.990451388888888  12.7340625 1.11197916666667  C 12.7871875 1.23350694444444  12.8296875 1.38541666666667  12.8615625 1.56770833333333  C 12.8934375 1.75  12.9111458333333 1.88671875  12.9146875 1.97786458333333  C 12.9182291666667 2.06901041666667  12.92 2.1875  12.92 2.33333333333333  C 12.92 2.56423611111111  12.8863541666667 2.79513888888889  12.8190625 3.02604166666667  C 12.7517708333333 3.25694444444444  12.6844791666667 3.43923611111111  12.6171875 3.57291666666667  C 12.5498958333333 3.70659722222222  12.4525 3.87673611111111  12.325 4.08333333333333  C 12.30375 4.11979166666667  12.2683333333333 4.17447916666667  12.21875 4.24739583333333  C 12.1691666666667 4.3203125  12.1302083333333 4.38715277777778  12.101875 4.44791666666667  C 12.0735416666667 4.50868055555555  12.0452083333333 4.58159722222222  12.016875 4.66666666666667  L 14.96 4.66666666666667  C 15.5125 4.66666666666667  15.990625 4.83984375  16.394375 5.18619791666667  Z " fill-rule="nonzero" fill="#333333" stroke="none" transform="matrix(1 0 0 1 1269 325 )" />
  </g>
</svg>