<?xml version="1.0" encoding="utf-8"?>
<svg version="1.1" xmlns:xlink="http://www.w3.org/1999/xlink" width="21px" height="25px" xmlns="http://www.w3.org/2000/svg">
  <g transform="matrix(1 0 0 1 -1497 -237 )">
    <path d="M 1507.5 237  C 1513.38 237  1518 242.5  1518 249.5  C 1518 256.5  1513.38 262  1507.5 262  C 1501.62 262  1497 256.5  1497 249.5  C 1497 242.5  1501.62 237  1507.5 237  Z " fill-rule="nonzero" fill="#e4e4e4" stroke="none" />
    <path d="M 1507.5 237.5  C 1513.1 237.5  1517.5 242.78  1517.5 249.5  C 1517.5 256.22  1513.1 261.5  1507.5 261.5  C 1501.9 261.5  1497.5 256.22  1497.5 249.5  C 1497.5 242.78  1501.9 237.5  1507.5 237.5  Z " stroke-width="1" stroke="#797979" fill="none" />
  </g>
</svg>