<?xml version="1.0" encoding="utf-8"?>
<svg version="1.1" xmlns:xlink="http://www.w3.org/1999/xlink" width="21px" height="25px" xmlns="http://www.w3.org/2000/svg">
  <g transform="matrix(1 0 0 1 -1497 -382 )">
    <path d="M 1507.5 382  C 1513.38 382  1518 387.5  1518 394.5  C 1518 401.5  1513.38 407  1507.5 407  C 1501.62 407  1497 401.5  1497 394.5  C 1497 387.5  1501.62 382  1507.5 382  Z " fill-rule="nonzero" fill="#ffffff" stroke="none" />
    <path d="M 1507.5 382.5  C 1513.1 382.5  1517.5 387.78  1517.5 394.5  C 1517.5 401.22  1513.1 406.5  1507.5 406.5  C 1501.9 406.5  1497.5 401.22  1497.5 394.5  C 1497.5 387.78  1501.9 382.5  1507.5 382.5  Z " stroke-width="1" stroke="#797979" fill="none" />
  </g>
</svg>