<?xml version="1.0" encoding="utf-8"?>
<svg version="1.1" xmlns:xlink="http://www.w3.org/1999/xlink" width="16px" height="14px" xmlns="http://www.w3.org/2000/svg">
  <g transform="matrix(1 0 0 1 -1267 -733 )">
    <path d="M 2.37 11.498046875  C 2.49666666666667 11.3856336805556  2.56 11.2473958333333  2.56 11.0833333333333  C 2.56 10.9253472222222  2.49666666666667 10.7886284722222  2.37 10.6731770833333  C 2.24333333333333 10.5577256944444  2.09333333333333 10.5  1.92 10.5  C 1.74 10.5  1.58833333333333 10.5577256944444  1.465 10.6731770833333  C 1.34166666666667 10.7886284722222  1.28 10.9253472222222  1.28 11.0833333333333  C 1.28 11.2473958333333  1.34166666666667 11.3856336805556  1.465 11.498046875  C 1.58833333333333 11.6104600694444  1.74 11.6666666666667  1.92 11.6666666666667  C 2.09333333333333 11.6666666666667  2.24333333333333 11.6104600694444  2.37 11.498046875  Z M 3.97 6.00651041666667  C 4.09666666666667 6.12196180555555  4.16 6.25868055555555  4.16 6.41666666666667  L 4.16 12.25  C 4.16 12.4079861111111  4.09666666666667 12.5447048611111  3.97 12.66015625  C 3.84333333333333 12.7756076388889  3.69333333333333 12.8333333333333  3.52 12.8333333333333  L 0.64 12.8333333333333  C 0.466666666666667 12.8333333333333  0.316666666666667 12.7756076388889  0.19 12.66015625  C 0.0633333333333333 12.5447048611111  0 12.4079861111111  0 12.25  L 0 6.41666666666667  C 0 6.25868055555555  0.0633333333333333 6.12196180555555  0.19 6.00651041666667  C 0.316666666666667 5.89105902777778  0.466666666666667 5.83333333333333  0.64 5.83333333333333  L 3.52 5.83333333333333  C 3.69333333333333 5.83333333333333  3.84333333333333 5.89105902777778  3.97 6.00651041666667  Z M 15.43 5.18619791666667  C 15.81 5.53255208333333  16 5.94270833333333  16 6.41666666666667  C 16 6.93923611111111  15.8166666666667 7.39192708333333  15.45 7.77473958333333  C 15.55 8.04210069444444  15.6 8.27300347222222  15.6 8.46744791666667  C 15.62 8.92925347222222  15.4766666666667 9.34548611111111  15.17 9.71614583333333  C 15.2833333333333 10.0564236111111  15.2833333333333 10.4118923611111  15.17 10.7825520833333  C 15.07 11.12890625  14.89 11.4144965277778  14.63 11.6393229166667  C 14.69 12.3198784722222  14.5266666666667 12.8697916666667  14.14 13.2890625  C 13.7133333333333 13.7508680555556  13.0566666666667 13.9878472222222  12.17 14  L 11.81 14  L 11.05 14  L 10.88 14  C 10.44 14  9.96 13.9529079861111  9.44 13.8587239583333  C 8.92 13.7645399305556  8.515 13.6764322916667  8.225 13.5944010416667  C 7.935 13.5123697916667  7.53333333333333 13.3923611111111  7.02 13.234375  C 6.2 12.9730902777778  5.67333333333333 12.8394097222222  5.44 12.8333333333333  C 5.26666666666667 12.8272569444444  5.11666666666667 12.7680121527778  4.99 12.6555989583333  C 4.86333333333333 12.5431857638889  4.8 12.4079861111111  4.8 12.25  L 4.8 6.40755208333333  C 4.8 6.25564236111111  4.86 6.12348090277778  4.98 6.01106770833333  C 5.1 5.89865451388889  5.24333333333333 5.83637152777778  5.41 5.82421875  C 5.57 5.81206597222222  5.82333333333333 5.6328125  6.17 5.28645833333333  C 6.51666666666667 4.94010416666667  6.85333333333333 4.57248263888889  7.18 4.18359375  C 7.63333333333333 3.65494791666667  7.97 3.29036458333333  8.19 3.08984375  C 8.31 2.98046875  8.41333333333333 2.83463541666667  8.5 2.65234375  C 8.58666666666667 2.47005208333333  8.645 2.32269965277778  8.675 2.21028645833333  C 8.705 2.09787326388889  8.75 1.9140625  8.81 1.65885416666667  C 8.85666666666667 1.421875  8.89833333333334 1.23654513888889  8.935 1.10286458333333  C 8.97166666666667 0.969184027777777  9.03666666666667 0.811197916666667  9.13 0.62890625  C 9.22333333333333 0.446614583333333  9.33666666666667 0.294704861111111  9.47 0.173177083333333  C 9.59666666666667 0.0577256944444438  9.74666666666667 0  9.92 0  C 10.2266666666667 0  10.5016666666667 0.0319010416666672  10.745 0.095703125  C 10.9883333333333 0.159505208333333  11.1883333333333 0.238498263888888  11.345 0.332682291666667  C 11.5016666666667 0.426866319444444  11.635 0.549913194444444  11.745 0.701822916666667  C 11.855 0.853732638888888  11.935 0.990451388888888  11.985 1.11197916666667  C 12.035 1.23350694444444  12.075 1.38541666666667  12.105 1.56770833333333  C 12.135 1.75  12.1516666666667 1.88671875  12.155 1.97786458333333  C 12.1583333333333 2.06901041666667  12.16 2.1875  12.16 2.33333333333333  C 12.16 2.56423611111111  12.1283333333333 2.79513888888889  12.065 3.02604166666667  C 12.0016666666667 3.25694444444444  11.9383333333333 3.43923611111111  11.875 3.57291666666667  C 11.8116666666667 3.70659722222222  11.72 3.87673611111111  11.6 4.08333333333333  C 11.58 4.11979166666667  11.5466666666667 4.17447916666667  11.5 4.24739583333333  C 11.4533333333333 4.3203125  11.4166666666667 4.38715277777778  11.39 4.44791666666667  C 11.3633333333333 4.50868055555555  11.3366666666667 4.58159722222222  11.31 4.66666666666667  L 14.08 4.66666666666667  C 14.6 4.66666666666667  15.05 4.83984375  15.43 5.18619791666667  Z " fill-rule="nonzero" fill="#333333" stroke="none" transform="matrix(1 0 0 1 1267 733 )" />
  </g>
</svg>