<?xml version="1.0" encoding="utf-8"?>
<svg version="1.1" xmlns:xlink="http://www.w3.org/1999/xlink" width="24px" height="14px" xmlns="http://www.w3.org/2000/svg">
  <g transform="matrix(1 0 0 1 -1428 -256 )">
    <path d="M 3.555 11.498046875  C 3.745 11.3856336805556  3.84 11.2473958333333  3.84 11.0833333333333  C 3.84 10.9253472222222  3.745 10.7886284722222  3.555 10.6731770833333  C 3.365 10.5577256944444  3.14 10.5  2.88 10.5  C 2.61 10.5  2.3825 10.5577256944444  2.1975 10.6731770833333  C 2.0125 10.7886284722222  1.92 10.9253472222222  1.92 11.0833333333333  C 1.92 11.2473958333333  2.0125 11.3856336805556  2.1975 11.498046875  C 2.3825 11.6104600694444  2.61 11.6666666666667  2.88 11.6666666666667  C 3.14 11.6666666666667  3.365 11.6104600694444  3.555 11.498046875  Z M 5.955 6.00651041666667  C 6.145 6.12196180555555  6.24 6.25868055555555  6.24 6.41666666666667  L 6.24 12.25  C 6.24 12.4079861111111  6.145 12.5447048611111  5.955 12.66015625  C 5.765 12.7756076388889  5.54 12.8333333333333  5.28 12.8333333333333  L 0.96 12.8333333333333  C 0.7 12.8333333333333  0.475 12.7756076388889  0.285 12.66015625  C 0.095 12.5447048611111  0 12.4079861111111  0 12.25  L 0 6.41666666666667  C 0 6.25868055555555  0.095 6.12196180555555  0.285 6.00651041666667  C 0.475 5.89105902777778  0.7 5.83333333333333  0.96 5.83333333333333  L 5.28 5.83333333333333  C 5.54 5.83333333333333  5.765 5.89105902777778  5.955 6.00651041666667  Z M 23.145 5.18619791666667  C 23.715 5.53255208333333  24 5.94270833333333  24 6.41666666666667  C 24 6.93923611111111  23.725 7.39192708333333  23.175 7.77473958333333  C 23.325 8.04210069444444  23.4 8.27300347222222  23.4 8.46744791666667  C 23.43 8.92925347222222  23.215 9.34548611111111  22.755 9.71614583333333  C 22.925 10.0564236111111  22.925 10.4118923611111  22.755 10.7825520833333  C 22.605 11.12890625  22.335 11.4144965277778  21.945 11.6393229166667  C 22.035 12.3198784722222  21.79 12.8697916666667  21.21 13.2890625  C 20.57 13.7508680555556  19.585 13.9878472222222  18.255 14  L 17.715 14  L 16.575 14  L 16.32 14  C 15.66 14  14.94 13.9529079861111  14.16 13.8587239583333  C 13.38 13.7645399305556  12.7725 13.6764322916667  12.3375 13.5944010416667  C 11.9025 13.5123697916667  11.3 13.3923611111111  10.53 13.234375  C 9.3 12.9730902777778  8.51 12.8394097222222  8.16 12.8333333333333  C 7.9 12.8272569444444  7.675 12.7680121527778  7.485 12.6555989583333  C 7.295 12.5431857638889  7.2 12.4079861111111  7.2 12.25  L 7.2 6.40755208333333  C 7.2 6.25564236111111  7.29 6.12348090277778  7.47 6.01106770833333  C 7.65 5.89865451388889  7.865 5.83637152777778  8.115 5.82421875  C 8.355 5.81206597222222  8.735 5.6328125  9.255 5.28645833333333  C 9.775 4.94010416666667  10.28 4.57248263888889  10.77 4.18359375  C 11.45 3.65494791666667  11.955 3.29036458333333  12.285 3.08984375  C 12.465 2.98046875  12.62 2.83463541666667  12.75 2.65234375  C 12.88 2.47005208333333  12.9675 2.32269965277778  13.0125 2.21028645833333  C 13.0575 2.09787326388889  13.125 1.9140625  13.215 1.65885416666667  C 13.285 1.421875  13.3475 1.23654513888889  13.4025 1.10286458333333  C 13.4575 0.969184027777777  13.555 0.811197916666667  13.695 0.62890625  C 13.835 0.446614583333333  14.005 0.294704861111111  14.205 0.173177083333333  C 14.395 0.0577256944444438  14.62 0  14.88 0  C 15.34 0  15.7525 0.0319010416666672  16.1175 0.095703125  C 16.4825 0.159505208333333  16.7825 0.238498263888888  17.0175 0.332682291666667  C 17.2525 0.426866319444444  17.4525 0.549913194444444  17.6175 0.701822916666667  C 17.7825 0.853732638888888  17.9025 0.990451388888888  17.9775 1.11197916666667  C 18.0525 1.23350694444444  18.1125 1.38541666666667  18.1575 1.56770833333333  C 18.2025 1.75  18.2275 1.88671875  18.2325 1.97786458333333  C 18.2375 2.06901041666667  18.24 2.1875  18.24 2.33333333333333  C 18.24 2.56423611111111  18.1925 2.79513888888889  18.0975 3.02604166666667  C 18.0025 3.25694444444444  17.9075 3.43923611111111  17.8125 3.57291666666667  C 17.7175 3.70659722222222  17.58 3.87673611111111  17.4 4.08333333333333  C 17.37 4.11979166666667  17.32 4.17447916666667  17.25 4.24739583333333  C 17.18 4.3203125  17.125 4.38715277777778  17.085 4.44791666666667  C 17.045 4.50868055555555  17.005 4.58159722222222  16.965 4.66666666666667  L 21.12 4.66666666666667  C 21.9 4.66666666666667  22.575 4.83984375  23.145 5.18619791666667  Z " fill-rule="nonzero" fill="#333333" stroke="none" transform="matrix(1 0 0 1 1428 256 )" />
  </g>
</svg>