<?xml version="1.0" encoding="utf-8"?>
<svg version="1.1" xmlns:xlink="http://www.w3.org/1999/xlink" width="15px" height="15px" xmlns="http://www.w3.org/2000/svg">
  <g transform="matrix(1 0 0 1 -358 -39 )">
    <path d="M 365.5 39  C 369.7 39  373 42.3  373 46.5  C 373 50.7  369.7 54  365.5 54  C 361.3 54  358 50.7  358 46.5  C 358 42.3  361.3 39  365.5 39  Z " fill-rule="nonzero" fill="#666666" stroke="none" />
    <path d="M 365.5 39.5  C 369.42 39.5  372.5 42.58  372.5 46.5  C 372.5 50.42  369.42 53.5  365.5 53.5  C 361.58 53.5  358.5 50.42  358.5 46.5  C 358.5 42.58  361.58 39.5  365.5 39.5  Z " stroke-width="1" stroke="#797979" fill="none" />
  </g>
</svg>